HIERARCHY
ROOT pelvis
{
  OFFSET 0 100 0
  CHANNELS 6 Xposition Yposition Zposition Zrotation Xrotation Yrotation
  JOINT pelvis_right_femur
  {
    OFFSET -10.78128 -3.44521 -0.5502486
    CHANNELS 3 Zrotation Xrotation Yrotation
    JOINT right_femur_tibia
    {
      OFFSET -0.8047443 -44.0398 -0.1307829
      CHANNELS 3 Zrotation Xrotation Yrotation
      JOINT right_tibia_foot
      {
        OFFSET 3.006224 -47.83518 -5
        CHANNELS 3 Zrotation Xrotation Yrotation
        End Site
        {
          OFFSET 0 -5 15
        }
      }
    }
  }
  JOINT pelvis_left_femur
  {
    OFFSET 10.78128 -3.44521 -0.5502486
    CHANNELS 3 Zrotation Xrotation Yrotation
    JOINT left_femur_tibia
    {
      OFFSET 0.8047443 -44.0398 -0.1307829
      CHANNELS 3 Zrotation Xrotation Yrotation
      JOINT left_tibia_foot
      {
        OFFSET -4.370144 -48.10324 -4.275266
        CHANNELS 3 Zrotation Xrotation Yrotation
        End Site
        {
          OFFSET 0 -5 15
        }
      }
    }
  }
  JOINT pelvis_spine1
  {
    OFFSET 0 6.468898 -3.129235
    CHANNELS 3 Zrotation Xrotation Yrotation
    JOINT spine1
    {
      OFFSET 0 23.15396 4.99043
      CHANNELS 3 Zrotation Xrotation Yrotation
      JOINT spine2
      {
        OFFSET 0 20.79997 -5.064912
        CHANNELS 3 Zrotation Xrotation Yrotation
        JOINT neck
        {
          OFFSET 0 14.38658 9.616178
          CHANNELS 3 Zrotation Xrotation Yrotation
          End Site
          {
            OFFSET 0 20 0
          }
        }
      }
      JOINT right_manubrium
      {
        OFFSET -5.722621 16.35077 3.967754
        CHANNELS 3 Zrotation Xrotation Yrotation
        JOINT right_clavicle
        {
          OFFSET -13.16364 1.694482 -4.693211
          CHANNELS 3 Zrotation Xrotation Yrotation
          JOINT right_humerus
          {
            OFFSET -28.5034 -0.3100689 -2.792744
            CHANNELS 3 Zrotation Xrotation Yrotation
            JOINT right_radius
            {
              OFFSET -25.15693 0.02248979 -1.271978
              CHANNELS 3 Zrotation Xrotation Yrotation
              End Site
              {
                OFFSET -15 0 0
              }
            }
          }
        }
      }
      JOINT left_manubrium
      {
        OFFSET 5.722621 16.35077 3.967754
        CHANNELS 3 Zrotation Xrotation Yrotation
        JOINT left_clavicle
        {
          OFFSET 13.16364 1.694482 -4.693211
          CHANNELS 3 Zrotation Xrotation Yrotation
          JOINT left_humerus
          {
            OFFSET 29.39168 -1.063119 -2.237045
            CHANNELS 3 Zrotation Xrotation Yrotation
            JOINT left_radius
            {
              OFFSET 24.59957 -0.9528479 0.9047498
              CHANNELS 3 Zrotation Xrotation Yrotation
              End Site
              {
                OFFSET 15 -0 -0
              }
            }
          }
        }
      }
    }
  }
}
MOTION
Frames: 7
Frame Time: 0.0416666666667
0 103.5113 0 1.533785 -2.778934 0.06413697 1.312924 -11.09697 6.99781 -0 39.001 -0 -6.004622 -17.78735 -4.332823 -6.786244 11.88319 -23.58513 -0 5.594195 -0 0.4394505 -18.77439 22.92945 -1.640903 -3.077289 4.676367 -0.2624526 7.308969 -6.945751 1.477793 22.56162 8.468239 5.339081 -22.01364 9.30355 5.926149 -19.10377 9.865467 87.83742 35.68121 -22.94334 -0 0 17.69845 -6.699859 7.008934 2.568947 7.264493 -20.6257 -3.148273 -99.94616 42.683 27.67099 0 0 -26.02971 -8.56351 17.57886 26.0477
0.1536837 103.1027 1.182793 0.792347 -2.104478 -0.05678956 2.522033 -13.73063 8.75182 -0 40.74798 -0 -5.431924 -16.91323 -5.459735 -6.173928 12.00409 -23.62859 -0 6.130922 -0 -1.313248 -20.00863 22.98499 -1.49266 -3.089264 4.979089 -0.520191 7.284418 -6.816687 1.499658 22.4778 8.599129 5.498309 -21.98623 9.355134 5.855513 -19.16019 9.760563 87.64275 36.21537 -22.52554 -0 0 17.7745 -6.882513 7.230362 2.514325 7.695712 -20.95342 -2.772506 -99.87799 42.62962 27.64896 0 0 -26.49791 -7.654963 17.86733 25.36311
0.2947017 102.4921 2.63943 0.1762744 -1.216392 -0.1496443 3.810009 -18.43287 8.573292 -0 38.22244 -0 -5.634123 -14.58865 -5.182626 -5.779525 12.2794 -22.94099 -0 6.002718 -0 -0.8252844 -21.36095 22.69323 -1.417372 -2.403418 4.389768 0.1655157 7.270124 -7.104179 1.388872 22.45794 8.335953 5.221038 -22.33015 8.996096 5.876655 -18.56613 10.10702 87.96383 36.11291 -22.84934 -0 0 16.54217 -7.424734 7.810567 3.218043 6.855669 -20.62495 -3.048113 -98.82648 41.62209 26.67254 0 0 -25.75494 -8.207489 17.17656 25.86537
0.4192507 101.7158 4.334771 -0.408089 -0.4830708 -0.2095121 4.936195 -22.42685 8.59429 -0 36.23427 -0 -5.830335 -12.54446 -5.078581 -5.360896 12.57043 -22.44606 -0 6.13613 -0 -1.226582 -22.7953 22.10608 -1.344155 -2.050171 4.16521 0.4590642 7.264982 -7.223292 1.33297 22.4271 8.230485 5.109999 -22.49665 8.815813 5.865238 -18.26843 10.26323 88.07179 36.20763 -22.88722 -0 0 15.89542 -7.805542 8.196181 3.599766 6.531172 -20.54753 -3.089774 -98.22064 41.027 26.11879 0 0 -25.48318 -8.201983 16.89234 25.88221
0.5358427 100.7338 6.365559 -0.8624472 0.3316242 -0.1997985 5.855366 -26.4764 8.142767 -0 32.99323 -0 -6.144665 -10.37425 -4.632163 -5.079732 12.94288 -21.81221 -0 6.220407 -0 -1.225292 -24.11216 21.30059 -1.226562 -1.658136 3.857189 0.7957669 7.292461 -7.400285 1.285811 22.34815 8.110208 4.996063 -22.65064 8.617621 5.877863 -17.91001 10.44241 88.3449 36.20045 -23.17259 -0 0 15.18338 -8.150023 8.61817 3.969226 6.176841 -20.48296 -3.193524 -97.54219 40.38249 25.45676 0 0 -25.26131 -8.364921 16.51821 26.07746
0.6472142 99.55708 8.795146 -1.220951 1.191318 -0.09382836 6.559145 -30.19532 7.520006 -0 29.21411 -0 -6.453473 -8.305128 -4.104858 -4.882155 13.40796 -21.15053 -0 6.48701 -0 -1.331121 -25.27086 20.24469 -1.118389 -1.319259 3.614136 1.072445 7.322595 -7.547052 1.243193 22.27774 8.011818 4.900091 -22.77688 8.444638 5.879488 -17.60083 10.5918 88.5679 36.24428 -23.37857 -0 0 14.54665 -8.504202 9.024772 4.308194 5.897013 -20.45677 -3.257236 -96.91993 39.77591 24.8528 0 0 -25.09822 -8.398085 16.21457 26.14985
0.7554099 98.22454 11.71453 -1.475457 2.112333 0.1365251 7.00487 -33.38107 6.692912 -0 24.90401 -0 -6.712926 -6.405643 -3.519815 -4.773903 13.99907 -20.39688 -0 7.123374 -0 -1.540719 -26.05956 18.89447 -0.9951699 -0.9859017 3.38421 1.330968 7.367387 -7.69496 1.204637 22.19598 7.919094 4.811226 -22.88561 8.275066 5.878764 -17.29242 10.73376 88.81732 36.30951 -23.60858 -0 0 13.90632 -8.881963 9.464061 4.640753 5.647927 -20.46439 -3.310644 -96.28169 39.14531 24.22709 0 0 -24.98647 -8.378327 15.92058 26.18619
